<?xml version="1.0" encoding="UTF-8"?>
<!DOCTYPE svg PUBLIC "-//W3C//DTD SVG 1.1//EN" "http://www.w3.org/Graphics/SVG/1.1/DTD/svg11.dtd">
<!-- Creator: CorelDRAW -->
<svg xmlns="http://www.w3.org/2000/svg" xml:space="preserve" width="46.421mm" height="47.8575mm" style="shape-rendering:geometricPrecision; text-rendering:geometricPrecision; image-rendering:optimizeQuality; fill-rule:evenodd; clip-rule:evenodd"
viewBox="0 0 13.0695 13.4739"
 xmlns:xlink="http://www.w3.org/1999/xlink">
 <defs>
  <style type="text/css">
   <![CDATA[
    .str0 {stroke:#1F1A17;stroke-width:0.39416;stroke-linecap:round;stroke-linejoin:round}
    .str1 {stroke:#1F1A17;stroke-width:0.563086;stroke-linecap:round;stroke-linejoin:round}
    .fil1 {fill:none}
    .fil0 {fill:white}
   ]]>
  </style>
 </defs>
 <g id="Слой_x0020_1">
  <metadata id="CorelCorpID_0Corel-Layer"/>
  <path class="fil0 str0" d="M5.79128 6.79999c0.00762981,-0.650533 0.1417,-1.47838 0.752564,-1.47838 0.610835,0 0.744906,0.827848 0.752536,1.47838l0.469867 0.313245 -0.0305474 0.0458352c-0.56928,0.152005 -0.997534,1.21655 -1.14222,1.83746l-0.0993001 0c-0.144488,-0.620182 -0.570969,-1.68492 -1.14222,-1.83746l-0.0305474 -0.0458352 0.469867 -0.313245zm-0.110618 -1.39887l0.0189478 0.0694848c-0.155355,0.0129228 -0.176443,0.0496641 -0.347649,0.0496641l-0.198628 0c-0.204316,0 -0.496613,-0.242943 -0.496613,-0.397285 0,-0.171206 0.0367413,-0.192294 0.0496641,-0.347649l0.974279 0.625785zm2.70394 -0.620548c0.022636,0.106142 0.0463419,0.108957 0.0463419,0.243084 0,0.249672 -0.246913,0.496613 -0.496613,0.496613l-0.198628 0c-0.171206,0 -0.192294,-0.0367413 -0.347621,-0.0496641l0.0189197 -0.0694848 0.977601 -0.620548zm-4.22449 0.292748c0,0.595435 0.556751,0.980163 1.14219,0.993227l0 0.347621c0,0.159916 -0.814616,0.603966 -0.993198,0.645578l0 0.0993283c0.679194,0.158227 1.25073,0.751607 1.49688,1.38344 0.145023,0.372284 0.679025,1.78045 0.688203,2.19215l0.0993001 0c0.00988215,-0.442698 0.540703,-1.81705 0.70183,-2.22819 0.461815,-1.17817 1.18071,-0.994888 1.48325,-1.44674 -0.178583,-0.041612 -0.993198,-0.485661 -0.993198,-0.645578l0 -0.347621c0.58544,-0.0130636 1.14219,-0.397792 1.14219,-0.993227l0 -0.0993283c0,-0.285738 -0.148992,-0.409814 -0.148992,-0.546277 0,-0.0105015 0.436363,-0.566577 0.546277,-0.595913 0.100342,0.430648 0.269127,0.688175 0.377661,1.31081 0.0673169,0.386136 0.0204963,1.27581 0.0196235,1.71851 -0.00191449,0.956879 0.365189,2.15718 0.677139,2.80411l-1.03819 -0.814222 -0.0107831 0.0617423 -0.724438 1.18034 -0.797836 -0.744962 -0.0367413 0.0493263 -1.1978 1.98279 -1.29707 -1.98279 -0.0367695 -0.0493263 -0.798258 0.738881 -0.802566 -1.1956 -0.988525 0.750706c0.3182,-0.601375 0.698648,-1.81308 0.695298,-2.73127 -0.00163295,-0.443824 -0.0493545,-1.33474 0.0104452,-1.72772 0.0929373,-0.610892 0.283148,-0.906427 0.386783,-1.35132 0.109914,0.0293368 0.546277,0.585412 0.546277,0.595913 0,0.113856 -0.148992,0.329687 -0.148992,0.645606zm0.0993283 -2.03609c0.0250855,0 0.780155,-0.578373 0.976869,-0.661935 0.3336,-0.141672 0.858706,-0.281627 1.30754,-0.281627 1.2518,0 2.2408,0.943562 2.33405,0.943562 0.234159,0 0.494643,-0.296211 0.645606,-0.397285 -0.0925713,0.397285 -0.740458,1.1706 -1.03363,1.39975 -0.236271,0.18472 -0.425862,0.337682 -0.668298,0.523557 -0.221321,0.169658 -0.572602,0.32231 -0.731476,0.460407 -0.158143,-0.105916 -0.277404,-0.198657 -0.546249,-0.198657 -0.268873,0 -0.388135,0.0927402 -0.546277,0.198657 -0.13148,-0.114278 -0.563987,-0.339681 -0.765599,-0.47592 -0.216422,-0.146261 -0.457704,-0.35877 -0.661794,-0.530089 -0.290608,-0.243901 -0.9131,-0.978952 -1.00601,-1.3777 0.187226,0.125371 0.384785,0.397285 0.69527,0.397285z"/>
  <rect class="fil1 str1" x="0.281543" y="0.281543" width="12.5064" height="12.9108" rx="2.98661" ry="2.98661"/>
  <line class="fil1 str1" x1="11.7679" y1="8.5384" x2="12.6083" y2= "9.37875" />
  <line class="fil1 str1" x1="11.7368" y1="9.64183" x2="12.5772" y2= "10.4822" />
  <line class="fil1 str1" x1="11.1618" y1="10.5588" x2="12.0022" y2= "11.3991" />
  <line class="fil1 str1" x1="10.5246" y1="11.398" x2="11.365" y2= "12.2383" />
  <line class="fil1 str1" x1="9.56108" y1="11.7554" x2="10.4014" y2= "12.5958" />
  <line class="fil1 str1" x1="8.41103" y1="11.9264" x2="9.25138" y2= "12.7667" />
  <line class="fil1 str1" x1="7.46302" y1="12.2838" x2="8.03917" y2= "12.86" />
  <line class="fil1 str1" x1="6.32075" y1="12.5092" x2="6.8969" y2= "13.0853" />
  <line class="fil1 str1" x1="12.1331" y1="7.67587" x2="12.7093" y2= "8.25202" />
 </g>
</svg>
