<?xml version="1.0" encoding="UTF-8"?>
<!DOCTYPE svg PUBLIC "-//W3C//DTD SVG 1.1//EN" "http://www.w3.org/Graphics/SVG/1.1/DTD/svg11.dtd">
<!-- Creator: CorelDRAW -->
<svg xmlns="http://www.w3.org/2000/svg" xml:space="preserve" width="46.421mm" height="47.8575mm" style="shape-rendering:geometricPrecision; text-rendering:geometricPrecision; image-rendering:optimizeQuality; fill-rule:evenodd; clip-rule:evenodd"
viewBox="0 0 38.6861 39.8833"
 xmlns:xlink="http://www.w3.org/1999/xlink">
 <defs>
  <style type="text/css">
   <![CDATA[
    .str0 {stroke:#1F1A17;stroke-width:1.66675;stroke-linecap:round;stroke-linejoin:round}
    .fil0 {fill:none}
   ]]>
  </style>
 </defs>
 <g id="Слой_x0020_1">
  <metadata id="CorelCorpID_0Corel-Layer"/>
  <rect class="fil0 str0" x="0.833375" y="0.833375" width="37.0194" height="38.2165" rx="8.84044" ry="8.84044"/>
  <line class="fil0 str0" x1="33.0393" y1="31.2542" x2="35.5268" y2= "33.7417" />
  <line class="fil0 str0" x1="31.1532" y1="33.7384" x2="33.6407" y2= "36.2258" />
  <line class="fil0 str0" x1="28.3011" y1="34.7964" x2="30.7885" y2= "37.2839" />
  <line class="fil0 str0" x1="24.8969" y1="35.3024" x2="27.3844" y2= "37.7899" />
  <line class="fil0 str0" x1="22.0908" y1="36.3605" x2="23.7962" y2= "38.0659" />
  <line class="fil0 str0" x1="18.7096" y1="37.0275" x2="20.415" y2= "38.7329" />
  <path class="fil0 str0" d="M13.4413 12.2961c2.27353,-2.10686 10.4983,-2.21269 13.4789,0.103922"/>
  <path class="fil0 str0" d="M17.3183 10.867c0.0305015,-0.460773 0.00258346,-0.958048 -0.280764,-1.37682 -0.330933,-0.489191 -0.655033,-0.420271 -1.20389,-0.377269 -2.83214,0.222261 -4.77682,1.45316 -5.90046,3.92711 -1.35157,2.97573 -2.22736,6.03547 -2.32512,9.23246 -0.0420854,1.37665 -0.00516693,1.69008 1.01438,2.63713 1.2374,1.14964 2.64238,1.92701 4.14788,2.48096 0.835709,0.307599 0.992467,0.513526 1.60391,-0.158675 0.614781,-0.676117 0.9878,-1.35215 1.11881,-2.02819"/>
  <path class="fil0 str0" d="M23.0517 10.9375c-0.0305015,-0.460773 -0.00258346,-0.957965 0.280764,-1.37682 0.330933,-0.489191 0.655033,-0.420271 1.20389,-0.377186 2.83214,0.222261 4.77682,1.45316 5.90046,3.92711 1.35157,2.97565 2.22736,6.03539 2.32512,9.23246 0.0420854,1.37665 0.00516693,1.69 -1.01438,2.63713 -1.2374,1.14956 -2.64238,1.92701 -4.14788,2.48096 -0.835709,0.307515 -0.992467,0.513526 -1.60391,-0.158758 -0.614781,-0.676034 -0.9878,-1.35207 -1.11881,-2.0281"/>
  <path class="fil0 str0" d="M12.0488 23.4759c2.27353,2.10686 13.3939,2.68739 16.3746,0.370852"/>
  <path class="fil0 str0" d="M16.4178 26.7655c0.211177,0.444689 4.30688,0.780123 5.14384,0.125756"/>
  <path class="fil0 str0" d="M22.3707 26.9975c0.591446,0.0639199 1.42157,-0.0488358 1.87826,-0.322433"/>
  <path class="fil0 str0" d="M15.7224 13.1148c0.176259,0.40127 0.326933,0.638282 0.65395,1.09122"/>
  <path class="fil0 str0" d="M17.8894 12.4644c0.0478357,0.408937 0.128256,0.520693 0.141424,1.0523"/>
  <path class="fil0 str0" d="M20.1313 12.2194c0.0478357,0.408937 0.0310016,0.624531 0.0441689,1.15606"/>
  <path class="fil0 str0" d="M24.5567 13.0888c-0.176259,0.40127 -0.327016,0.638282 -0.65395,1.09122"/>
  <path class="fil0 str0" d="M22.3896 12.4384c-0.0478357,0.408937 -0.12834,0.520776 -0.141507,1.0523"/>
  <ellipse class="fil0 str0" cx="15.9763" cy="19.2835" rx="2.2335" ry="2.71395"/>
  <ellipse class="fil0 str0" cx="24.3389" cy="19.1796" rx="2.2335" ry="2.71395"/>
 </g>
</svg>
