<?xml version="1.0" encoding="UTF-8"?>
<!DOCTYPE svg PUBLIC "-//W3C//DTD SVG 1.1//EN" "http://www.w3.org/Graphics/SVG/1.1/DTD/svg11.dtd">
<!-- Creator: CorelDRAW -->
<svg xmlns="http://www.w3.org/2000/svg" xml:space="preserve" width="46.421mm" height="47.8575mm" style="shape-rendering:geometricPrecision; text-rendering:geometricPrecision; image-rendering:optimizeQuality; fill-rule:evenodd; clip-rule:evenodd"
viewBox="0 0 43.132 44.4667"
 xmlns:xlink="http://www.w3.org/1999/xlink">
 <defs>
  <style type="text/css">
   <![CDATA[
    .str0 {stroke:#1F1A17;stroke-width:1.8583;stroke-linecap:round;stroke-linejoin:round}
    .fil0 {fill:none}
    .fil1 {fill:#1F1A17}
   ]]>
  </style>
 </defs>
 <g id="Слой_x0020_1">
  <metadata id="CorelCorpID_0Corel-Layer"/>
  <rect class="fil0 str0" x="0.929148" y="0.929148" width="41.2737" height="42.6084" rx="9.85641" ry="9.85641"/>
  <ellipse class="fil0 str0" cx="21.3607" cy="22.9007" rx="10.2671" ry="10.1644"/>
  <ellipse class="fil1 str0" cx="34.6959" cy="11.2981" rx="1.64273" ry="1.62631"/>
  <line class="fil0 str0" x1="16.5351" y1="27.4182" x2="20.642" y2= "31.5251" />
  <line class="fil0 str0" x1="16.5258" y1="23.7676" x2="20.6327" y2= "27.8745" />
  <line class="fil0 str0" x1="18.3209" y1="21.357" x2="22.4278" y2= "25.4639" />
  <line class="fil0 str0" x1="19.5006" y1="18.2797" x2="23.6074" y2= "22.3865" />
  <line class="fil0 str0" x1="24.4243" y1="19.3568" x2="27.1977" y2= "22.1301" />
  <line class="fil0 str0" x1="38.8365" y1="28.1785" x2="41.6099" y2= "30.9518" />
  <line class="fil0 str0" x1="38.734" y1="31.82" x2="41.5073" y2= "34.5933" />
  <line class="fil0 str0" x1="36.8363" y1="34.846" x2="39.6096" y2= "37.6194" />
  <line class="fil0 str0" x1="34.7334" y1="37.6156" x2="37.5067" y2= "40.389" />
  <line class="fil0 str0" x1="31.5535" y1="38.7953" x2="34.3268" y2= "41.5686" />
  <line class="fil0 str0" x1="27.7581" y1="39.3595" x2="30.5314" y2= "42.1328" />
  <line class="fil0 str0" x1="24.6295" y1="40.5391" x2="26.5309" y2= "42.4405" />
  <line class="fil0 str0" x1="20.8598" y1="41.2828" x2="22.7612" y2= "43.1842" />
  <line class="fil0 str0" x1="40.0418" y1="25.3319" x2="41.9432" y2= "27.2333" />
 </g>
</svg>
