<?xml version="1.0" encoding="UTF-8"?>
<!DOCTYPE svg PUBLIC "-//W3C//DTD SVG 1.1//EN" "http://www.w3.org/Graphics/SVG/1.1/DTD/svg11.dtd">
<!-- Creator: CorelDRAW -->
<svg xmlns="http://www.w3.org/2000/svg" xml:space="preserve" width="46.421mm" height="47.8575mm" style="shape-rendering:geometricPrecision; text-rendering:geometricPrecision; image-rendering:optimizeQuality; fill-rule:evenodd; clip-rule:evenodd"
viewBox="0 0 13.2835 13.6945"
 xmlns:xlink="http://www.w3.org/1999/xlink">
 <defs>
  <style type="text/css">
   <![CDATA[
    .str0 {stroke:#1F1A17;stroke-width:0.572304;stroke-linecap:round;stroke-linejoin:round}
    .fil0 {fill:none}
    .fil1 {fill:#0B0B0B}
   ]]>
  </style>
 </defs>
 <g id="Слой_x0020_1">
  <metadata id="CorelCorpID_0Corel-Layer"/>
  <rect class="fil0 str0" x="0.286152" y="0.286152" width="12.7112" height="13.1222" rx="3.0355" ry="3.0355"/>
  <line class="fil0 str0" x1="11.3446" y1="10.7316" x2="12.1987" y2= "11.5857" />
  <line class="fil0 str0" x1="10.6969" y1="11.5846" x2="11.551" y2= "12.4387" />
  <line class="fil0 str0" x1="9.71761" y1="11.9479" x2="10.5717" y2= "12.802" />
  <line class="fil0 str0" x1="8.54873" y1="12.1216" x2="9.40284" y2= "12.9757" />
  <line class="fil0 str0" x1="7.5852" y1="12.4849" x2="8.17078" y2= "13.0705" />
  <line class="fil0 str0" x1="6.42423" y1="12.714" x2="7.00981" y2= "13.2995" />
  <path class="fil1" d="M2.97927 6.77699c0,-0.299315 1.30794,-0.66021 1.61613,-0.865638 0.0846437,-0.0564005 0.726196,-0.294794 0.893653,-0.370653 0.23888,-0.108165 0.608502,-0.29342 0.836851,-0.380611 0.351881,-0.13432 0.612193,-0.222226 0.921638,-0.342667 0.133919,-0.0521369 0.757902,-0.307213 0.848469,-0.369022 0.17006,-0.116092 1.52877,-0.621436 1.81352,-0.621436 0.129112,0 0.327758,0.0818967 0.327758,0.23413l0 0.187315c0,0.652999 -0.166426,1.066 -0.187458,1.49826 -0.0230925,0.473868 -0.129112,1.03195 -0.182622,1.5031 -0.0597199,0.52589 -0.328874,2.61775 -0.753724,2.61775l-0.187315 0c-0.383987,0 -1.1643,-0.64988 -1.4883,-0.85299 -0.285723,-0.17916 -1.27441,-0.731691 -1.27441,-1.06686l0 -0.0936575c0,-0.180276 2.07952,-2.23708 2.29445,-2.29448l0 -0.23413c-0.350536,0.00781195 -1.48865,0.922611 -1.85398,1.14289 -0.519366,0.313079 -1.23383,1.01112 -1.93891,1.01112 -0.336372,0 -1.68575,-0.374458 -1.68575,-0.60876l0 -0.0936575zm7.93099 -2.61975c0.0476729,-0.459531 -0.515589,-0.939008 -0.953916,-0.939008l-0.23413 0c-0.551558,0 -1.51351,0.565007 -2.03079,0.731948 -0.387078,0.124905 -0.529267,0.276222 -0.946018,0.411944 -0.282146,0.0918834 -0.679811,0.338747 -0.937205,0.420729 -0.43621,0.138955 -0.634799,0.260742 -1.02145,0.383329 -0.264376,0.0838139 -0.688024,0.338089 -0.937062,0.420901 -0.585324,0.194612 -1.47915,0.514358 -1.47915,1.23675 0,0.679439 0.424592,0.690771 0.832244,0.900291 0.164738,0.0846724 1.1287,0.364014 1.36858,0.364014l0.23413 0c0.202767,0 0.534274,-0.137238 0.749203,-0.187315 0,0.840571 0.931568,1.15645 1.46035,1.53652 0.436239,0.313537 1.30357,1.0389 1.95794,1.0389l0.187315 0c0.663243,0 0.956291,-0.99867 1.03158,-1.63748 0.188946,-1.60291 0.490293,-3.0794 0.718384,-4.68153z"/>
 </g>
</svg>
