<?xml version="1.0" encoding="UTF-8"?>
<!DOCTYPE svg PUBLIC "-//W3C//DTD SVG 1.1//EN" "http://www.w3.org/Graphics/SVG/1.1/DTD/svg11.dtd">
<!-- Creator: CorelDRAW -->
<svg xmlns="http://www.w3.org/2000/svg" xml:space="preserve" width="46.421mm" height="47.8575mm" style="shape-rendering:geometricPrecision; text-rendering:geometricPrecision; image-rendering:optimizeQuality; fill-rule:evenodd; clip-rule:evenodd"
viewBox="0 0 5.49661 5.66671"
 xmlns:xlink="http://www.w3.org/1999/xlink">
 <defs>
  <style type="text/css">
   <![CDATA[
    .str0 {stroke:#1F1A17;stroke-width:0.118408;stroke-linecap:round;stroke-linejoin:round}
    .str1 {stroke:#1F1A17;stroke-width:0.236816;stroke-linecap:round;stroke-linejoin:round}
    .fil0 {fill:none}
   ]]>
  </style>
 </defs>
 <g id="Слой_x0020_1">
  <metadata id="CorelCorpID_0Corel-Layer"/>
  <path class="fil0 str0" d="M2.18309 1.59934c0.0863904,0.0633009 0.166801,0.26251 0.343288,0.26251l0.0605657 0c-0.00690318,-0.083004 -0.083146,-0.163569 -0.113305,-0.270349 -0.0348948,-0.123488 -0.038968,-0.211773 -0.0886165,-0.315249 -0.0760297,-0.113541 -0.15142,-0.146447 -0.302899,-0.181732l0 0.100966c0,0.166908 0.071921,0.279182 0.100966,0.403854z"/>
  <path class="fil0 str0" d="M3.96007 1.21567l-0.0211121 0.184432 -0.281787 -0.0834657c0.274481,0.238592 0.323088,-0.0250788 0.323088,0.585598 0.0493287,-0.0567529 0.0605775,-0.15676 0.0605775,-0.26251l0 -0.0605775 0.014505 -0.0194663 0.229936 0.158821 -0.288158 -0.300732 0.00332726 -0.282865 -0.0111067 -0.0434202 -0.0292704 0.124186z"/>
  <path class="fil0 str0" d="M1.22704 3.3403l0.0877521 -0.00436925c0.0465343,0 0.0605775,0.014055 0.0605775,0.0605775l0 0.0403889c0,0.0390036 -0.035996,0.080766 -0.0605775,0.080766 -0.0330477,0 -0.0605775,-0.0120894 -0.0605775,-0.0403771 0,-0.0772138 -0.00619273,-0.00735313 0.020449,-0.0607314l-0.0476237 -0.0762547zm0.390651 -1.94288c0.0412296,0.0276009 0.50482,0.470127 0.50482,0.48462 0,0.0780663 -0.0828382,0.121167 -0.161544,0.121167l-0.0605775 0c-0.0623536,0 -0.322756,-0.427962 -0.343276,-0.50482l-0.0403889 -0.0202004c0.0290928,0.124861 0.201933,0.303918 0.201933,0.424054l0 0.0605775c0,0.102506 -0.127573,0.172449 -0.157565,0.347267 -0.0364815,0.212767 -0.0224028,0.223744 -0.111422,0.393399 -0.102316,0.195006 -0.377188,0.42377 -0.377188,0.652641l0 0.0807779c0,0.279218 0.196498,0.388911 0.24231,0.585598 0.207261,-0.00462975 0.625987,-0.192567 0.625987,-0.383677l0 -0.080766c0,-0.225638 -0.383665,-0.222133 -0.383665,-0.545209l0 -0.0201886c0,-0.0944066 0.0992495,-0.229072 0.121155,-0.323088 0.196533,-0.371422 -0.174829,-0.390201 0.403854,-0.525021 0.0501221,-0.0435623 0.181732,-0.115637 0.181732,-0.201921l0 -0.0605893c0,-0.139046 -0.116277,-0.144576 -0.181732,-0.24231l-0.625975 -0.565398 -0.336823 -0.2701 -0.0207569 0.0205083 0.519124 0.57268z"/>
  <path class="fil0 str0" d="M2.64752 1.27625c0.396951,0.456676 0.437292,0.767343 1.29235,0.767343 -0.023208,-0.0201767 -0.0605775,-0.0353329 -0.0605775,-0.0605893 0,-0.0850879 0.0403889,-0.0965261 0.0403889,-0.201933l0 -0.141344c0,-0.193929 -0.59912,-0.26251 -0.868297,-0.26251l-0.181839 0.0194307c-0.0476474,-0.178074 -0.452958,-0.403096 -0.726847,-0.403096 0.0838802,0.0532244 0.199861,0.064627 0.289685,0.114181 0.0924411,0.0509983 0.142918,0.10575 0.215135,0.168518z"/>
  <path class="fil0 str0" d="M3.96007 2.02339c0.0365762,0.0499326 0.230469,0.04284 0.403854,0.24231 -0.0209819,-0.252019 -0.187002,-0.353104 -0.222133,-0.484632l-0.0403771 0c-0.00825303,0.0992022 -0.0578541,0.220026 -0.141344,0.242322z"/>
  <path class="fil0 str0" d="M2.32444 2.2859c0,0.0500629 0.055628,0.080766 0.080766,0.080766 0.0476355,0 0.0898479,-0.0396075 0.121167,-0.0605775 -0.0299217,-0.0565279 -0.0325267,-0.080766 -0.121167,-0.080766 -0.0390036,0 -0.080766,0.035996 -0.080766,0.0605775z"/>
  <path class="fil0 str0" d="M2.32444 2.2859c0,-0.0245815 0.0417625,-0.0605775 0.080766,-0.0605775 0.0886402,0 0.0912452,0.0242381 0.121167,0.080766 -0.0313189,0.02097 -0.0735313,0.0605775 -0.121167,0.0605775 -0.025138,0 -0.080766,-0.0307032 -0.080766,-0.080766zm-0.100966 0.0201886c0,0.0935778 -0.0289981,0.201933 0.0605775,0.201933l0.141355 0c0.0763258,0 0.134689,-0.0492695 0.181732,-0.0807779 0,-0.132404 -0.0541598,-0.222121 -0.181732,-0.222121l-0.0605893 0c-0.051389,0 -0.0930805,0.0686529 -0.141344,0.100966z"/>
  <path class="fil0 str0" d="M3.47544 2.97245c-0.110155,0.472791 -0.796068,0.268431 -0.969264,0.504832 0.173207,-0.0144221 0.435256,-0.061951 0.646057,-0.0808845 0.19085,-0.0171455 0.363891,-0.171111 0.403972,-0.34317 0,-0.180927 0.00339831,-0.307209 -0.100966,-0.383665 0.00787413,0.0946671 0.0403889,0.0998534 0.0403889,0.201921 0,0.0545387 -0.00965025,0.0556754 -0.0201886,0.100966z"/>
  <path class="fil0 str0" d="M3.63697 2.99265c0.0422598,0.08806 0.044178,0.164208 0.101227,0.262262 0.0435978,0.0749404 0.10009,0.15129 0.153232,0.230422 0.0916122,0.136465 0.230173,0.328712 0.230173,0.537158l0 0.0403771c0,0.0606604 -0.043882,0.130284 -0.0605775,0.201933 0.221281,-0.117082 0.403866,-0.290289 0.403866,-0.625987l0 -0.121155c0,-0.337936 -0.413362,-0.543173 -0.646176,-0.666364l-0.158371 -0.0864259 -0.0233737 0.227781z"/>
  <path class="fil0 str0" d="M3.59659 2.62918l0.48462 0.201933c0.186729,0.0435031 0.424054,0.219007 0.424054,0.464431l0.0195018 0.00776756 0.0814647 -0.250078c0,-0.338303 -0.0203188,-0.258248 -0.0807779,-0.484632 -0.271261,-0.198748 -0.149845,-0.249888 -0.621405,-0.347847 -0.343419,-0.0713526 -0.46249,-0.0374051 -0.731512,-0.217551 0,0.456155 0.195042,0.426908 0.424054,0.625975z"/>
  <path class="fil0 str0" d="M1.22704 3.3403l0.0476237 0.0762547c-0.0266418,0.0533783 -0.020449,-0.0164824 -0.020449,0.0607314 0,0.0282877 0.0275298,0.0403771 0.0605775,0.0403771 0.0245815,0 0.0605775,-0.0417625 0.0605775,-0.080766l0 -0.0403889c0,-0.0465225 -0.0140432,-0.0605775 -0.0605775,-0.0605775l-0.0877521 0.00436925z"/>
  <path class="fil0 str0" d="M2.38502 4.2446c0.0866391,0.0580199 0.20005,0.179388 0.363465,0.100966 0.0584106,-0.0390983 0.121167,-0.0843893 0.121167,-0.181732l0 -0.0202004c0,-0.0976629 -0.0638692,-0.161532 -0.161556,-0.161532l-0.0605775 0c-0.0613471,0 -0.0685464,0.0350251 -0.080766,0.080766l0.0988351 -0.0638219c0.0917188,0.0241197 0.143475,0.0324556 0.143475,0.144588l0 0.0202004c0,0.0486301 -0.0725367,0.121155 -0.121155,0.121155 -0.120504,0 -0.222121,-0.0807187 -0.222121,-0.201921 0,-0.106792 0.109527,-0.181744 0.222121,-0.181744 0.230907,0 0.379166,0.271782 0.424054,0.464443l0.080766 0.121155c0.0599973,0.0401758 0.129893,0.121155 0.222133,0.121155l0.080766 0c0.0714,0 0.191004,-0.0584817 0.222121,-0.100966 -0.076385,0.00635851 -0.134807,0.0403889 -0.201933,0.0403889 -0.143143,0 -0.214709,-0.0834421 -0.24231,-0.201933 -0.0678477,-0.106922 -0.0301467,-0.36041 -0.166659,-0.519894 -0.0998771,-0.116691 -0.272386,-0.207048 -0.479517,-0.207048l-0.080766 0c-0.176676,0 -0.609825,0.238545 -0.686565,0.343276 0.259598,0.0604828 0.392214,0.0843893 0.525021,0.282699z"/>
  <rect class="fil0 str1" x="0.118408" y="0.118408" width="5.2598" height="5.42989" rx="1.25607" ry="1.25607"/>
  <line class="fil0 str1" x1="4.94921" y1="3.59098" x2="5.30264" y2= "3.9444" />
  <line class="fil0 str1" x1="4.93614" y1="4.05505" x2="5.28957" y2= "4.40847" />
  <line class="fil0 str1" x1="4.69431" y1="4.44068" x2="5.04773" y2= "4.7941" />
  <line class="fil0 str1" x1="4.42633" y1="4.79363" x2="4.77975" y2= "5.14705" />
  <line class="fil0 str1" x1="4.02109" y1="4.94396" x2="4.37451" y2= "5.29738" />
  <line class="fil0 str1" x1="3.53741" y1="5.01585" x2="3.89084" y2= "5.36928" />
  <line class="fil0 str1" x1="3.13871" y1="5.16619" x2="3.38102" y2= "5.4085" />
  <line class="fil0 str1" x1="2.65831" y1="5.26096" x2="2.90062" y2= "5.50327" />
  <line class="fil0 str1" x1="5.10281" y1="3.22823" x2="5.34512" y2= "3.47054" />
 </g>
</svg>
