<?xml version="1.0" encoding="UTF-8"?>
<!DOCTYPE svg PUBLIC "-//W3C//DTD SVG 1.1//EN" "http://www.w3.org/Graphics/SVG/1.1/DTD/svg11.dtd">
<!-- Creator: CorelDRAW -->
<svg xmlns="http://www.w3.org/2000/svg" xml:space="preserve" width="46.421mm" height="47.8575mm" style="shape-rendering:geometricPrecision; text-rendering:geometricPrecision; image-rendering:optimizeQuality; fill-rule:evenodd; clip-rule:evenodd"
viewBox="0 0 7.65723 7.89419"
 xmlns:xlink="http://www.w3.org/1999/xlink">
 <defs>
  <style type="text/css">
   <![CDATA[
    .str0 {stroke:#FFFFFF;stroke-width:0.230933;stroke-linecap:round;stroke-linejoin:round}
    .str1 {stroke:#FFFFFF;stroke-width:0.329904;stroke-linecap:round;stroke-linejoin:round}
    .fil0 {fill:none}
   ]]>
  </style>
 </defs>
 <g id="Слой_x0020_1">
  <metadata id="CorelCorpID_0Corel-Layer"/>
  <path class="fil0 str0" d="M1.53717 3.75398l0 0.394384c0,0.336601 0.224879,1.15839 0.538453,1.11575l0.31486 -0.0473082 0.07888 -0.0645457c0,-0.415926 -0.164177,-1.54171 0.250974,-1.54171l0.250974 0c0.167377,0 0.250974,0.0836141 0.250974,0.250974l0.001732 1.19179 0.241803 -0.0443061 0.00745583 -1.79285c0.0776429,-0.0520093 0.119343,-0.107565 0.250958,-0.107565l0.286835 0c0.0990866,0 0.173249,0.11672 0.21513,0.17927l0.00842904 1.48279 0.242545 -0.192054 0 -1.8644c0.0776594,-0.0519928 0.119343,-0.107549 0.250974,-0.107549l0.215114 0c0.463333,0 0.286835,1.1527 0.286835,1.61341 0.183245,-0.122708 0.824628,-0.650339 0.824628,-0.896332l0 -0.0358605c0,-0.670299 -1.14924,-1.64927 -1.82853,-1.64927l-0.400883 0 -0.280352 0c-0.943492,0 -2.00779,1.11625 -2.00779,2.11538z"/>
  <path class="fil0 str0" d="M2.50522 5.83348c0.199674,0.2982 0.90585,0.466105 1.43414,0.466105l0.0358441 0c0.671354,0 1.25512,-0.414458 1.60478,-0.761567 0.408586,-0.405584 0.618157,-0.942519 0.618157,-1.74819 -0.508844,0.585414 -0.76856,0.959591 -1.52938,1.33891 -0.450104,0.224417 -1.547,0.704741 -2.16354,0.704741z"/>
  <rect class="fil0 str1" x="0.164952" y="0.164952" width="7.32733" height="7.56428" rx="1.74981" ry="1.74981"/>
  <line class="fil0 str1" x1="6.89466" y1="5.00253" x2="7.38701" y2= "5.49488" />
  <line class="fil0 str1" x1="6.87645" y1="5.64901" x2="7.3688" y2= "6.14136" />
  <line class="fil0 str1" x1="6.16623" y1="6.67791" x2="6.65858" y2= "7.17026" />
  <line class="fil0 str1" x1="5.6017" y1="6.88734" x2="6.09405" y2= "7.37968" />
  <line class="fil0 str1" x1="4.92791" y1="6.9875" x2="5.42025" y2= "7.47984" />
  <line class="fil0 str1" x1="4.37248" y1="7.19692" x2="4.71004" y2= "7.53448" />
  <line class="fil0 str1" x1="3.70324" y1="7.32895" x2="4.04079" y2= "7.6665" />
  <line class="fil0 str1" x1="7.10864" y1="4.49718" x2="7.44619" y2= "4.83474" />
 </g>
</svg>
